<?xml version="1.0" encoding="UTF-8" standalone="no"?>
<!-- Generator: Adobe Illustrator 21.0.2, SVG Export Plug-In . SVG Version: 6.00 Build 0)  -->

<svg
   xmlns:dc="http://purl.org/dc/elements/1.1/"
   xmlns:cc="http://creativecommons.org/ns#"
   xmlns:rdf="http://www.w3.org/1999/02/22-rdf-syntax-ns#"
   xmlns:svg="http://www.w3.org/2000/svg"
   xmlns="http://www.w3.org/2000/svg"
   xmlns:sodipodi="http://sodipodi.sourceforge.net/DTD/sodipodi-0.dtd"
   xmlns:inkscape="http://www.inkscape.org/namespaces/inkscape"
   version="1.1"
   id="Layer_1"
   x="0px"
   y="0px"
   viewBox="0 0 480 480"
   style="enable-background:new 0 0 480 480;"
   xml:space="preserve"
   sodipodi:docname="wifi_creature.svg"
   inkscape:version="0.92.3 (2405546, 2018-03-11)"><metadata
   id="metadata29"><rdf:RDF><cc:Work
       rdf:about=""><dc:format>image/svg+xml</dc:format><dc:type
         rdf:resource="http://purl.org/dc/dcmitype/StillImage" /></cc:Work></rdf:RDF></metadata><defs
   id="defs27" /><sodipodi:namedview
   pagecolor="#ffffff"
   bordercolor="#666666"
   borderopacity="1"
   objecttolerance="10"
   gridtolerance="10"
   guidetolerance="10"
   inkscape:pageopacity="0"
   inkscape:pageshadow="2"
   inkscape:window-width="922"
   inkscape:window-height="1023"
   id="namedview25"
   showgrid="false"
   inkscape:zoom="0.49166667"
   inkscape:cx="240"
   inkscape:cy="484.0678"
   inkscape:window-x="77"
   inkscape:window-y="27"
   inkscape:window-maximized="0"
   inkscape:current-layer="g20" />
<style
   type="text/css"
   id="style2">
	.st0{fill:#FFFFFF;}
	.st1{fill:#0C7F99;}
</style>
<path
   class="st0"
   d="m 252.6003,96.005207 c 0,15.765553 -4.53168,30.780273 -11.97652,42.416753 l -98.40162,1.1261 c -8.4159,-11.63645 -12.94758,-27.40196 -12.94758,-43.542853 0,-39.413774 27.51364,-71.320164 61.50101,-71.320164 34.31112,-0.37537 61.82471,31.90639 61.82471,71.320164 z"
   id="path4"
   style="fill:#808080;stroke-width:3.48572898"
   inkscape:connector-curvature="0" />
<path
   class="st0"
   d="m 351.00187,94.879107 c 0,15.765553 -4.53162,30.780273 -11.97649,42.416743 l -98.4016,1.12611 C 232.20787,126.78551 227.67619,111.02 227.67619,94.879107 c 0,-39.413784 27.51361,-71.320164 61.50099,-71.320164 34.31109,-0.37537 61.82469,31.90638 61.82469,71.320164 z"
   id="path6"
   style="fill:#808080;stroke-width:3.48572898"
   inkscape:connector-curvature="0" />
<path
   d="m 208.57853,40.075183 c -4.20794,0.37534 -7.44486,4.12907 -7.44486,9.00887 0,4.87982 3.56056,9.00885 7.76854,9.00885 4.20795,0 7.76854,-4.12903 7.76854,-9.00885 0,-4.8798 -3.56059,-9.00887 -7.76854,-9.00887 0,0 -0.32368,0 -0.32368,0 l 9.38696,-3.75367 c 13.91868,0 24.92411,13.13794 24.92411,28.90344 0,15.7655 -11.32915,28.903424 -24.92411,28.903424 -13.5949,0 -24.92409,-13.137924 -24.92409,-28.903424 0,-15.7655 11.32919,-28.90344 24.92409,-28.90344"
   id="path8"
   style="fill:#000000;stroke-width:3.48572898"
   inkscape:connector-curvature="0" />
<path
   d="m 306.98014,38.949073 c -4.20796,0.37535 -7.4449,4.12908 -7.4449,9.00888 0,4.87981 3.56062,9.00884 7.76856,9.00884 4.20797,0 7.76858,-4.12903 7.76858,-9.00884 0,-4.8798 -3.56061,-9.00888 -7.76858,-9.00888 0,0 -0.32366,0 -0.32366,0 l 9.38698,-3.75366 c 13.91863,0 24.92412,13.13793 24.92412,28.90344 0,15.7655 -11.32917,28.903424 -24.92412,28.903424 -13.59494,0 -24.92406,-13.137924 -24.92406,-28.903424 0,-15.76551 11.32912,-28.90344 24.92406,-28.90344"
   id="path10"
   style="fill:#000000;stroke-width:3.48572898"
   inkscape:connector-curvature="0" />


<g
   transform="matrix(0.05954638,4.1085032e-4,6.0727768e-4,-0.0842632,-267.40354,761.63363)"
   id="g20"
   style="fill:#000000;stroke:none">
<path
   d="m 8183.6319,7691.9454 c -2.2035,-1.5162 -57.7275,-5.1894 -123.5536,-7.3169 C 7562.068,7663.737 6943.9523,7560.9729 6424.571,7412.3355 5842.3764,7245.589 5276.6265,6993.6064 4877.6859,6722.9758 c -90.3633,-61.404 -112.1833,-81.1308 -130.8854,-119.1215 -62.5753,-121.5637 32.6703,-264.0365 221.0909,-332.1802 68.1938,-24.5022 79.6315,-26.0503 180.8018,-26.2878 97.7601,-0.2293 113.5688,2.0156 166.0811,21.6702 32.4026,12.0951 102.2935,49.2049 155.2738,83.3117 436.2072,275.868 927.9061,482.383 1489.6636,624.0746 170.7798,42.9587 420.7796,93.3383 559.6492,113.5511 420.0193,60.6303 565.0649,70.179 1019.7272,69.8726 351.2544,-0.8243 411.5725,-2.4872 580.5495,-18.8582 345.9464,-33.5216 594.4501,-73.6607 921.8694,-148.9768 588.171,-134.5013 1164.719,-361.7796 1631.261,-643.5695 160.169,-96.223 219.058,-116.1393 347.544,-117.2013 80.71,-0.1896 99.894,2.8081 165.941,24.7132 79.479,26.4377 156.657,77.9837 191.848,128.1066 15.961,23.544 19.486,45.5958 16.215,116.3479 -5.068,109.5514 -13.552,120.9816 -155.285,211.8366 -384.182,245.8441 -925.022,487.4917 -1453.074,649.2368 -581.083,177.8441 -1207.9482,288.8547 -1845.0422,326.1023 -128.769,7.1484 -747.3336,12.4035 -757.2829,6.3413 z"
   id="path12"
   inkscape:connector-curvature="0"
   style="fill:#000000;stroke-width:0.92989868"
   inkscape:transform-center-x="1.0954107"
   inkscape:transform-center-y="-2.6955233" />
<path
   d="m 8086.9732,6711.2326 c -913.7712,-40.721 -1813.8631,-245.5284 -2444.442,-556.997 -129.3768,-63.5905 -149.2942,-85.3217 -149.9383,-160.348 -0.4479,-52.1666 2.9536,-61.5371 30.5828,-87.8514 41.4467,-39.1784 123.4913,-81.197 197.6073,-100.3742 46.3258,-11.6194 82.2711,-15.6422 153.0511,-17.829 140.4096,-3.2038 196.232,9.8154 345.3904,79.3114 143.3348,67.1383 345.9588,145.5454 498.4179,193.9479 260.6873,82.0532 611.8556,158.4467 883.7369,192.4621 54.6063,6.5691 117.3525,14.9148 139.4297,17.8947 22.0778,2.9798 116.1621,11.3953 209.0804,19.2221 240.4171,19.292 638.5238,20.1792 884.4223,1.971 650.6979,-48.9571 1232.1473,-187.7466 1706.1193,-407.6617 151.442,-69.9982 210.51,-84.5198 341.665,-84.2275 83.567,0.1862 107.961,2.5851 163.795,16.7767 73.271,17.7472 170.019,66.0256 207.472,102.4491 53.848,53.4579 51.036,131.4071 -5.378,184.6193 -57.571,53.7958 -391.763,197.2392 -666.065,286.892 -540.508,175.807 -1118.7711,280.0219 -1763.7764,316.0969 -146.1677,8.4662 -579.0687,10.4321 -731.1704,3.6456 z"
   id="path14"
   inkscape:connector-curvature="0"
   style="fill:#000000;stroke-width:0.82480228" />
<path
   d="m 8068.3997,6001.5511 c -117.0063,-5.7728 -364.7832,-30.819 -498.9642,-50.5994 -359.3413,-53.749 -678.1246,-138.3224 -932.4497,-248.1753 -134.5761,-58.1866 -156.3442,-77.1931 -155.8086,-135.5478 0.7817,-34.4131 6.3205,-47.8664 28.8037,-69.7572 59.5884,-57.2125 174.9824,-97.8291 308.846,-108.9732 57.856,-4.8461 80.5698,-4.2917 140.8197,2.8385 88.6665,10.1924 144.4566,25.292 240.2434,65.428 309.0208,128.94 701.4541,198.7306 1124.9709,199.7672 439.4137,1.0755 819.0885,-65.8279 1152.6273,-202.6718 113.0663,-46.1088 165.1937,-55.9565 299.1755,-55.6286 119.2204,0.2918 181.7931,12.4154 271.8973,52.0387 87.828,39.1189 121.099,72.6179 121.648,125.9875 0.605,58.8562 -29.78,85.2166 -163.187,140.7522 -373.0789,156.1991 -870.4845,257.2294 -1393.6284,284.3788 -88.5185,4.2723 -452.9779,4.8766 -544.9939,0.1624 z"
   id="path16"
   inkscape:connector-curvature="0"
   style="fill:#000000;stroke-width:0.75254261" />
<path
   d="m 8288.559,5393.3267 c -106.7247,-17.9586 -191.3424,-48.9527 -270.4601,-98.794 -178.8062,-113.2311 -218.5859,-268.418 -105.022,-411.8976 31.5458,-39.6138 47.3311,-52.1702 108.9127,-89.8296 81.3202,-49.2464 146.0843,-74.3362 237.7328,-92.1568 76.6363,-14.9309 203.8692,-20.6428 282.9172,-11.8872 190.5036,20.4337 371.6459,112.8818 446.9229,227.9744 84.7865,130.5667 31.3002,281.8219 -135.2894,381.7619 -61.5826,37.1761 -144.5126,69.0203 -225.095,87.3321 -60.8319,13.9751 -78.2164,15.4131 -170.6817,17.2823 -88.5145,1.3885 -112.2271,-0.078 -169.9374,-9.7855 z"
   id="path18"
   inkscape:connector-curvature="0"
   style="fill:#000000;stroke-width:0.61807382" />
</g>

<path
   d="m 196.58813,141.97388 c 12.70134,0.0896 4.38935,-0.19509 31.17604,0.21985 23.78453,0.39378 28.63415,0.42798 36.25334,0.70774 0,0 -0.74219,7.0023 -0.74219,7.0023 -8.54296,-0.28627 -21.4736,-0.6035 -33.94403,-0.69144 -9.0064,-0.0635 -19.62936,-0.13842 -33.71629,-0.23775"
   id="path22"
   style="fill:#808080;stroke-width:2.28478622"
   inkscape:connector-curvature="0" />
</svg>