<?xml version="1.0" encoding="UTF-8" standalone="no"?>
<!-- Generator: Adobe Illustrator 21.0.2, SVG Export Plug-In . SVG Version: 6.00 Build 0)  -->

<svg
   xmlns:dc="http://purl.org/dc/elements/1.1/"
   xmlns:cc="http://creativecommons.org/ns#"
   xmlns:rdf="http://www.w3.org/1999/02/22-rdf-syntax-ns#"
   xmlns:svg="http://www.w3.org/2000/svg"
   xmlns="http://www.w3.org/2000/svg"
   xmlns:sodipodi="http://sodipodi.sourceforge.net/DTD/sodipodi-0.dtd"
   xmlns:inkscape="http://www.inkscape.org/namespaces/inkscape"
   version="1.1"
   id="Layer_1"
   x="0px"
   y="0px"
   viewBox="0 0 480 480"
   style="enable-background:new 0 0 480 480;"
   xml:space="preserve"
   sodipodi:docname="wifi_creature.svg"
   inkscape:version="0.92.3 (2405546, 2018-03-11)"><metadata
   id="metadata29"><rdf:RDF><cc:Work
       rdf:about=""><dc:format>image/svg+xml</dc:format><dc:type
         rdf:resource="http://purl.org/dc/dcmitype/StillImage" /></cc:Work></rdf:RDF></metadata><defs
   id="defs27" /><sodipodi:namedview
   pagecolor="#ffffff"
   bordercolor="#666666"
   borderopacity="1"
   objecttolerance="10"
   gridtolerance="10"
   guidetolerance="10"
   inkscape:pageopacity="0"
   inkscape:pageshadow="2"
   inkscape:window-width="922"
   inkscape:window-height="1025"
   id="namedview25"
   showgrid="false"
   inkscape:zoom="0.49166667"
   inkscape:cx="240"
   inkscape:cy="484.0678"
   inkscape:window-x="77"
   inkscape:window-y="27"
   inkscape:window-maximized="0"
   inkscape:current-layer="Layer_1" />
<style
   type="text/css"
   id="style2">
	.st0{fill:#FFFFFF;}
	.st1{fill:#0C7F99;}
</style>
<path
   class="st0"
   d="m 252.6003,96.005207 c 0,15.765553 -4.53168,30.780273 -11.97652,42.416753 l -98.40162,1.1261 c -8.4159,-11.63645 -12.94758,-27.40196 -12.94758,-43.542853 0,-39.413774 27.51364,-71.320164 61.50101,-71.320164 34.31112,-0.37537 61.82471,31.90639 61.82471,71.320164 z"
   id="path4"
   style="fill:#808080;stroke-width:3.48572898"
   inkscape:connector-curvature="0" />
<path
   class="st0"
   d="m 351.00187,94.879107 c 0,15.765553 -4.53162,30.780273 -11.97649,42.416743 l -98.4016,1.12611 C 232.20787,126.78551 227.67619,111.02 227.67619,94.879107 c 0,-39.413784 27.51361,-71.320164 61.50099,-71.320164 34.31109,-0.37537 61.82469,31.90638 61.82469,71.320164 z"
   id="path6"
   style="fill:#808080;stroke-width:3.48572898"
   inkscape:connector-curvature="0" />
<path
   d="m 208.57853,40.075183 c -4.20794,0.37534 -7.44486,4.12907 -7.44486,9.00887 0,4.87982 3.56056,9.00885 7.76854,9.00885 4.20795,0 7.76854,-4.12903 7.76854,-9.00885 0,-4.8798 -3.56059,-9.00887 -7.76854,-9.00887 0,0 -0.32368,0 -0.32368,0 l 9.38696,-3.75367 c 13.91868,0 24.92411,13.13794 24.92411,28.90344 0,15.7655 -11.32915,28.903424 -24.92411,28.903424 -13.5949,0 -24.92409,-13.137924 -24.92409,-28.903424 0,-15.7655 11.32919,-28.90344 24.92409,-28.90344"
   id="path8"
   style="fill:#000000;stroke-width:3.48572898"
   inkscape:connector-curvature="0" />
<path
   d="m 306.98014,38.949073 c -4.20796,0.37535 -7.4449,4.12908 -7.4449,9.00888 0,4.87981 3.56062,9.00884 7.76856,9.00884 4.20797,0 7.76858,-4.12903 7.76858,-9.00884 0,-4.8798 -3.56061,-9.00888 -7.76858,-9.00888 0,0 -0.32366,0 -0.32366,0 l 9.38698,-3.75366 c 13.91863,0 24.92412,13.13793 24.92412,28.90344 0,15.7655 -11.32917,28.903424 -24.92412,28.903424 -13.59494,0 -24.92406,-13.137924 -24.92406,-28.903424 0,-15.76551 11.32912,-28.90344 24.92406,-28.90344"
   id="path10"
   style="fill:#000000;stroke-width:3.48572898"
   inkscape:connector-curvature="0" />


<g
   transform="matrix(0.05726331,0,0,-0.08281702,-227.02251,589.79798)"
   id="g20"
   style="fill:#000000;stroke:none">
<path
   d="m 7871.7455,5822.2246 c -2.349,-2.3464 -60.4891,-8.9686 -129.3486,-13.4333 C 7221.2909,5767.7224 6572.1684,5599.9301 6024.8351,5364.2372 5411.3039,5099.8374 4812.362,4706.152 4387.1837,4287.2313 c -96.3095,-95.047 -119.7146,-125.4472 -140.4178,-183.5577 -69.1015,-185.9946 26.0982,-400.8303 220.9398,-500.9151 70.5225,-35.9788 82.4289,-38.1189 188.1545,-36.5895 102.1618,1.478 118.7519,5.1865 174.2312,36.0507 34.2325,18.9947 108.406,76.7224 164.815,129.5684 464.285,427.58 984.4511,750.7526 1575.86,976.6772 179.7904,68.5053 442.5999,149.7738 588.348,183.1002 440.8087,100.0306 592.6864,117.2585 1067.8436,125.2884 367.0699,5.3101 430.0576,3.909 606.1562,-17.8241 360.5264,-44.5019 619.0138,-100.886 958.9041,-209.2784 610.5977,-193.5052 1206.2217,-528.2857 1685.2177,-948.001 164.46,-143.3044 225.397,-172.4846 359.646,-171.6986 84.344,1.22 104.484,6.1361 174.177,40.6747 83.868,41.6809 166.098,121.4934 204.404,198.3579 17.397,36.0945 21.754,69.6879 20.491,177.198 -1.958,166.4671 -10.476,183.6871 -155.833,319.1745 -394.016,366.6023 -951.884,723.8971 -1498.822,959.9471 -601.8685,259.536 -1253.6219,416.6029 -1918.3123,461.3297 -134.3584,8.4622 -780.6586,4.8938 -791.2412,-4.5091 z"
   id="path12"
   inkscape:connector-curvature="0"
   style="fill:#000000;stroke-width:1.17196572" />
<path
   d="m 7827.416,4679.8907 c -934.9783,-72.9311 -1854.5124,-455.2676 -2497.2357,-1039.8223 -131.8712,-119.342 -152.0677,-160.2277 -152.0677,-301.6701 0,-98.3466 3.5641,-116.0269 32.0767,-165.7527 42.7691,-74.0362 127.1192,-153.5976 203.1529,-190.0632 47.5212,-22.1005 84.3501,-29.8355 156.8198,-34.2556 143.7514,-6.6301 200.7768,17.6802 352.8445,148.0725 146.1275,125.9721 352.8444,272.9396 508.4761,363.5511 266.1184,153.5976 624.9029,296.1449 902.9017,359.131 55.8373,12.1551 119.9909,27.6255 142.563,33.1506 22.5726,5.525 118.8033,20.9953 213.8457,35.3605 245.9214,35.3606 653.4156,35.3606 905.2773,0 666.4846,-95.0316 1262.8754,-359.131 1749.9667,-775.7229 155.631,-132.6023 216.221,-160.2277 350.468,-160.2277 85.538,0 110.487,4.42 167.513,30.9405 74.845,33.1506 173.452,123.7621 211.468,192.2732 54.649,100.5566 51.086,247.5241 -7.127,348.0808 -59.402,101.6617 -402.742,373.4962 -684.305,543.669 -554.8093,333.7156 -1147.6355,532.619 -1808.18,603.3402 -149.6916,16.5753 -592.8263,22.1004 -748.458,9.9451 z"
   id="path14"
   inkscape:connector-curvature="0"
   style="fill:#000000;stroke-width:1.1457721" />
<path
   d="m 7824.9242,3608.3079 c -122.367,-11.5264 -381.3579,-62.8717 -521.5448,-103.7383 -375.4171,-111.0734 -708.065,-287.1142 -972.9954,-516.5959 -140.1873,-121.552 -162.7599,-161.3707 -161.5718,-283.9706 1.188,-72.3025 7.1282,-100.5948 30.8888,-146.7007 62.9654,-120.5041 184.1443,-206.4287 324.3317,-230.5296 60.5895,-10.4786 84.35,-9.4307 147.3156,5.2394 92.6662,20.9572 150.8795,52.3931 250.6739,136.222 321.9558,269.3005 731.826,413.9055 1174.9598,413.9055 459.767,0 857.7576,-142.5093 1208.2262,-431.7192 118.8024,-97.4511 173.4516,-118.4083 313.6393,-118.4083 124.7426,0 190.0849,25.1486 283.939,107.9297 91.4779,81.7332 125.9305,151.94 125.9305,264.0612 0,123.6477 -32.0762,179.1844 -172.2639,296.5449 -392.0492,330.0765 -913.5939,544.8882 -1461.2752,604.6164 -92.6669,9.4307 -474.0239,12.5743 -570.2537,3.1435 z"
   id="path16"
   inkscape:connector-curvature="0"
   style="fill:#000000;stroke-width:1.11574638" />
<path
   d="m 7928.4614,2611.8775 c -128.3131,-25.0872 -230.0131,-68.4813 -325.0603,-138.3187 -214.8055,-158.6596 -262.3288,-376.3081 -125.4613,-577.6839 38.0186,-55.5987 57.028,-73.2275 131.1644,-126.1141 97.8982,-69.1593 175.8363,-104.417 286.0913,-129.5042 92.1952,-21.019 245.2202,-29.1554 340.2673,-16.9508 229.0626,28.4774 446.72,157.9816 537.0151,319.3534 101.6998,183.0688 37.0671,395.2931 -163.4815,535.6458 -74.1366,52.2086 -173.9352,96.9587 -270.883,122.724 -73.1864,19.6629 -94.0964,21.697 -205.3012,24.4092 -106.4525,2.0341 -134.9668,0 -204.3508,-13.5607 z"
   id="path18"
   inkscape:connector-curvature="0"
   style="fill:#000000;stroke-width:0.80277544" />
</g>

<path
   d="m 213.82516,129.9814 c 12.70165,0 4.38786,-0.22604 31.17681,0 23.78672,0.22606 28.63646,0.22606 36.25743,0.45209 0,0 -0.6928,7.00736 -0.6928,7.00736 -8.54476,-0.22603 -21.47732,-0.45207 -33.94806,-0.45207 -9.00662,0 -19.62985,0 -33.71713,0"
   id="path22"
   style="fill:#808080;stroke-width:2.28478622"
   inkscape:connector-curvature="0" />
</svg>